<?xml version="1.0" encoding="UTF-8"?>
<!DOCTYPE svg PUBLIC "-//W3C//DTD SVG 1.1//EN" "http://www.w3.org/Graphics/SVG/1.1/DTD/svg11.dtd">
<svg xmlns="http://www.w3.org/2000/svg" version="1.1" width="512px" height="512px" style="shape-rendering:geometricPrecision; text-rendering:geometricPrecision; image-rendering:optimizeQuality; fill-rule:evenodd; clip-rule:evenodd" xmlns:xlink="http://www.w3.org/1999/xlink">
<g><path style="opacity:0.995" fill="#fec94f" d="M 232.5,-0.5 C 247.833,-0.5 263.167,-0.5 278.5,-0.5C 368.144,10.3879 435.644,54.7213 481,132.5C 497.695,163.971 507.861,197.304 511.5,232.5C 511.5,247.833 511.5,263.167 511.5,278.5C 503.879,350.425 472.212,409.092 416.5,454.5C 411.016,426.243 405.849,397.91 401,369.5C 397.356,358.519 390.189,350.686 379.5,346C 363.297,340.321 346.964,335.154 330.5,330.5C 322.5,325.5 314.5,320.5 306.5,315.5C 302.506,311.521 299.506,306.855 297.5,301.5C 312.182,301.833 326.848,301.499 341.5,300.5C 353.378,276.412 363.878,251.745 373,226.5C 381.56,195.62 379.894,165.287 368,135.5C 357.548,107.407 341.715,82.9068 320.5,62C 310.384,53.5643 299.05,47.231 286.5,43C 280.888,41.9741 275.221,41.4741 269.5,41.5C 255.866,41.8086 242.199,41.9752 228.5,42C 210.814,47.0236 195.647,56.1903 183,69.5C 157.876,98.752 141.542,132.419 134,170.5C 130.723,195.771 134.056,220.105 144,243.5C 152.793,262.748 161.293,282.082 169.5,301.5C 184.5,301.5 199.5,301.5 214.5,301.5C 211.999,306.506 208.999,311.173 205.5,315.5C 197.529,320.823 189.529,326.156 181.5,331.5C 166.748,335.689 152.081,340.189 137.5,345C 125.19,349.321 116.023,357.155 110,368.5C 104.938,397.21 99.7709,425.877 94.5,454.5C 38.7877,409.092 7.12108,350.425 -0.5,278.5C -0.5,263.167 -0.5,247.833 -0.5,232.5C 10.3875,142.857 54.7208,75.3573 132.5,30C 163.971,13.3053 197.304,3.1386 232.5,-0.5 Z"/></g>
<g><path style="opacity:1" fill="#666666" d="M 297.5,301.5 C 295.058,296.502 293.391,291.168 292.5,285.5C 291.771,280.87 291.437,276.203 291.5,271.5C 305.148,261.233 314.648,247.9 320,231.5C 326.938,211.157 328.272,190.491 324,169.5C 322.833,168.333 321.667,167.167 320.5,166C 299.316,169.354 282.483,162.52 270,145.5C 265.791,138.414 262.124,131.081 259,123.5C 252.549,138.282 243.383,151.116 231.5,162C 219.2,170.424 205.533,174.091 190.5,173C 186.51,174.99 184.01,178.157 183,182.5C 180.946,210.052 187.946,235.052 204,257.5C 208.374,263.375 213.541,268.375 219.5,272.5C 219.46,277.193 219.127,281.859 218.5,286.5C 217.575,291.609 216.242,296.609 214.5,301.5C 199.5,301.5 184.5,301.5 169.5,301.5C 161.293,282.082 152.793,262.748 144,243.5C 134.056,220.105 130.723,195.771 134,170.5C 141.542,132.419 157.876,98.752 183,69.5C 195.647,56.1903 210.814,47.0236 228.5,42C 242.199,41.9752 255.866,41.8086 269.5,41.5C 275.221,41.4741 280.888,41.9741 286.5,43C 299.05,47.231 310.384,53.5643 320.5,62C 341.715,82.9068 357.548,107.407 368,135.5C 379.894,165.287 381.56,195.62 373,226.5C 363.878,251.745 353.378,276.412 341.5,300.5C 326.848,301.499 312.182,301.833 297.5,301.5 Z"/></g>
<g><path style="opacity:1" fill="#fdd197" d="M 291.5,271.5 C 280.892,280.707 268.558,286.04 254.5,287.5C 241.252,286.039 229.586,281.039 219.5,272.5C 213.541,268.375 208.374,263.375 204,257.5C 187.946,235.052 180.946,210.052 183,182.5C 184.01,178.157 186.51,174.99 190.5,173C 205.533,174.091 219.2,170.424 231.5,162C 243.383,151.116 252.549,138.282 259,123.5C 262.124,131.081 265.791,138.414 270,145.5C 282.483,162.52 299.316,169.354 320.5,166C 321.667,167.167 322.833,168.333 324,169.5C 328.272,190.491 326.938,211.157 320,231.5C 314.648,247.9 305.148,261.233 291.5,271.5 Z"/></g>
<g><path style="opacity:1" fill="#efb97d" d="M 291.5,271.5 C 291.437,276.203 291.771,280.87 292.5,285.5C 291.778,285.082 291.278,284.416 291,283.5C 279.091,295.874 264.591,301.707 247.5,301C 237.155,297.413 227.988,291.913 220,284.5C 219.722,285.416 219.222,286.082 218.5,286.5C 219.127,281.859 219.46,277.193 219.5,272.5C 229.586,281.039 241.252,286.039 254.5,287.5C 268.558,286.04 280.892,280.707 291.5,271.5 Z"/></g>
<g><path style="opacity:1" fill="#fdd298" d="M 292.5,285.5 C 293.391,291.168 295.058,296.502 297.5,301.5C 299.506,306.855 302.506,311.521 306.5,315.5C 308.519,341.584 304.353,366.584 294,390.5C 285.723,406.616 273.223,417.949 256.5,424.5C 255.5,424.5 254.5,424.5 253.5,424.5C 229.986,413.553 215.486,395.22 210,369.5C 206.185,351.704 204.685,333.704 205.5,315.5C 208.999,311.173 211.999,306.506 214.5,301.5C 216.242,296.609 217.575,291.609 218.5,286.5C 219.222,286.082 219.722,285.416 220,284.5C 227.988,291.913 237.155,297.413 247.5,301C 264.591,301.707 279.091,295.874 291,283.5C 291.278,284.416 291.778,285.082 292.5,285.5 Z"/></g>
<g><path style="opacity:1" fill="#fffdfc" d="M 205.5,315.5 C 204.685,333.704 206.185,351.704 210,369.5C 215.486,395.22 229.986,413.553 253.5,424.5C 239.818,423.825 227.818,418.992 217.5,410C 201.826,394.993 186.826,379.326 172.5,363C 167.779,358.557 162.612,354.724 157,351.5C 156.383,350.551 156.549,349.718 157.5,349C 165.745,343.39 173.745,337.557 181.5,331.5C 189.529,326.156 197.529,320.823 205.5,315.5 Z"/></g>
<g><path style="opacity:1" fill="#fffdfc" d="M 306.5,315.5 C 314.5,320.5 322.5,325.5 330.5,330.5C 339.766,337.145 349.1,343.812 358.5,350.5C 352.99,354.088 347.657,357.922 342.5,362C 329.47,374.696 316.804,387.696 304.5,401C 295.567,409.266 285.567,415.933 274.5,421C 268.674,423.124 262.674,424.291 256.5,424.5C 273.223,417.949 285.723,406.616 294,390.5C 304.353,366.584 308.519,341.584 306.5,315.5 Z"/></g>
<g><path style="opacity:1" fill="#ff5b62" d="M 330.5,330.5 C 346.964,335.154 363.297,340.321 379.5,346C 390.189,350.686 397.356,358.519 401,369.5C 405.849,397.91 411.016,426.243 416.5,454.5C 389.301,477.437 358.301,493.604 323.5,503C 308.562,506.931 293.562,509.764 278.5,511.5C 263.167,511.5 247.833,511.5 232.5,511.5C 192.465,507.322 155.132,494.822 120.5,474C 111.228,468.209 102.562,461.709 94.5,454.5C 99.7709,425.877 104.938,397.21 110,368.5C 116.023,357.155 125.19,349.321 137.5,345C 152.081,340.189 166.748,335.689 181.5,331.5C 173.745,337.557 165.745,343.39 157.5,349C 156.549,349.718 156.383,350.551 157,351.5C 162.612,354.724 167.779,358.557 172.5,363C 186.826,379.326 201.826,394.993 217.5,410C 227.818,418.992 239.818,423.825 253.5,424.5C 254.5,424.5 255.5,424.5 256.5,424.5C 262.674,424.291 268.674,423.124 274.5,421C 285.567,415.933 295.567,409.266 304.5,401C 316.804,387.696 329.47,374.696 342.5,362C 347.657,357.922 352.99,354.088 358.5,350.5C 349.1,343.812 339.766,337.145 330.5,330.5 Z"/></g>
</svg>
